<svg width="128" height="128" viewBox="0 0 128 128" fill="none" xmlns="http://www.w3.org/2000/svg"><path d="M61.264 127.996c-8.581 0 -15.561 -6.969 -15.561 -15.538 0 -0.497 0.021 -1 0.07 -1.495a7.869 7.869 0 0 0 -8.568 -8.581c-0.482 0.044 -0.973 0.066 -1.458 0.066 -8.581 0 -15.561 -6.967 -15.561 -15.537s6.979 -15.537 15.561 -15.537 15.561 6.967 15.561 15.537c0 0.497 -0.022 1 -0.07 1.495a7.869 7.869 0 0 0 8.568 8.581q0.726 -0.066 1.458 -0.066c8.581 0 15.561 6.969 15.561 15.537 0 8.569 -6.981 15.538 -15.561 15.538" fill="#D4FF87"/><path d="M61.271 128C52.691 128 45.711 121.033 45.711 112.463s6.981 -15.537 15.561 -15.537c0.499 0 1.003 0.021 1.498 0.07q0.373 0.033 0.748 0.034c2.076 0 4.081 -0.818 5.565 -2.295a7.852 7.852 0 0 0 2.282 -6.3c-0.044 -0.48 -0.066 -0.97 -0.066 -1.456 0 -8.568 6.979 -15.537 15.561 -15.537s15.561 6.967 15.561 15.537 -6.979 15.537 -15.561 15.537c-0.499 0 -1.003 -0.021 -1.498 -0.07a7.888 7.888 0 0 0 -6.313 2.26 7.852 7.852 0 0 0 -2.282 6.3c0.044 0.48 0.066 0.97 0.066 1.456C76.832 121.031 69.852 128 61.271 128" fill="#D4FF87"/><path d="M86.853 102.457c-8.581 0 -15.559 -6.967 -15.559 -15.537s6.978 -15.537 15.559 -15.537q0.752 -0.001 1.498 0.07 0.375 0.033 0.748 0.034c2.076 0 4.081 -0.818 5.566 -2.295a7.852 7.852 0 0 0 2.28 -6.3c-0.044 -0.48 -0.066 -0.97 -0.066 -1.456 0 -8.568 6.981 -15.537 15.561 -15.537 8.581 0 15.561 6.967 15.561 15.537s-6.979 15.537 -15.561 15.537c-0.499 0 -1.003 -0.022 -1.498 -0.07a7.888 7.888 0 0 0 -6.313 2.26 7.852 7.852 0 0 0 -2.282 6.3c0.045 0.48 0.066 0.97 0.066 1.456 0 8.568 -6.979 15.537 -15.561 15.537" fill="#D4FF87"/><path d="M86.853 102.519c8.594 0 15.561 -6.957 15.561 -15.538s-6.967 -15.537 -15.561 -15.537 -15.559 6.956 -15.559 15.537 6.966 15.537 15.559 15.537" fill="#D4FF87"/><path d="M112.435 76.974c8.593 0 15.559 -6.956 15.559 -15.537s-6.966 -15.537 -15.559 -15.537 -15.561 6.956 -15.561 15.537 6.967 15.537 15.561 15.537" fill="#D4FF87"/><path d="M61.272 70.606c5.078 0 9.194 -4.111 9.194 -9.18s-4.117 -9.18 -9.195 -9.18 -9.194 4.111 -9.194 9.18 4.117 9.18 9.194 9.18" fill="#D4FF87"/><path d="M61.272 19.68c5.078 0 9.194 -4.111 9.194 -9.18S66.349 1.32 61.271 1.32s-9.194 4.111 -9.194 9.18 4.117 9.18 9.194 9.18" fill="#D4FF87"/><path d="M35.748 45.13c5.078 0 9.195 -4.112 9.195 -9.182s-4.117 -9.18 -9.195 -9.18 -9.194 4.111 -9.194 9.18 4.117 9.18 9.194 9.18" fill="#D4FF87"/><path d="M86.779 45.13c5.078 0 9.195 -4.112 9.195 -9.182s-4.117 -9.18 -9.195 -9.18 -9.194 4.111 -9.194 9.18 4.117 9.18 9.194 9.18" fill="#D4FF87"/><path d="M10.514 70.606c5.078 0 9.194 -4.111 9.194 -9.18s-4.117 -9.18 -9.194 -9.18C5.437 52.245 1.32 56.356 1.32 61.425s4.117 9.18 9.195 9.18" fill="#D4FF87"/></svg>